<?xml version="1.0" encoding="UTF-8" standalone="no"?>
<!-- Created with Inkscape (http://www.inkscape.org/) -->

<svg
   width="420mm"
   height="297mm"
   viewBox="0 0 420 297"
   version="1.1"
   id="svg5"
   xml:space="preserve"
   inkscape:version="1.2 (dc2aedaf03, 2022-05-15)"
   sodipodi:docname="Updated_Sofle.svg"
   xmlns:inkscape="http://www.inkscape.org/namespaces/inkscape"
   xmlns:sodipodi="http://sodipodi.sourceforge.net/DTD/sodipodi-0.dtd"
   xmlns="http://www.w3.org/2000/svg"
   xmlns:svg="http://www.w3.org/2000/svg"><sodipodi:namedview
     id="namedview7"
     pagecolor="#ffffff"
     bordercolor="#000000"
     borderopacity="0.25"
     inkscape:showpageshadow="2"
     inkscape:pageopacity="0.0"
     inkscape:pagecheckerboard="0"
     inkscape:deskcolor="#d1d1d1"
     inkscape:document-units="mm"
     showgrid="false"
     inkscape:zoom="0.52724989"
     inkscape:cx="678.04661"
     inkscape:cy="654.33869"
     inkscape:window-width="1920"
     inkscape:window-height="1017"
     inkscape:window-x="1912"
     inkscape:window-y="1072"
     inkscape:window-maximized="1"
     inkscape:current-layer="layer1" /><defs
     id="defs2" /><g
     inkscape:label="Layer 1"
     inkscape:groupmode="layer"
     id="layer1"><path
       d="m 176.9986,18.946006 0.014,0.035 v 62.706999 32.543005 l -0.003,0.019 -0.011,0.017 -0.009,0.003 -0.007,0.007 -17.82899,7.64087 -21.066,9.02813 -44.470001,0.002 -30.946002,0.002 -1.82201,0.82817 -15.62199,7.10083 -8.345,8.345 -5.937,5.93699 -0.035,0.015 -0.036,-0.015 -2.79301,-2.79299 -17.84399,-17.84401 -0.002,-0.004 -0.002,-0.001 -0.011,-0.032 10e-4,-0.002 -10e-4,-0.002 0.794,-7.14199 V 81.688004 15.013002 l 0.014,-0.03599 0.036,-0.014 h 17.015 53.58 V 13.42501 l 0.014,-0.035 0.035,-0.01501 h 11.907002 5.507 V 11.787002 10.25 l 0.015,-0.035 0.035,-0.015 h 20.637001 l 0.036,0.015 0.014,0.035 v 1.537002 h 0.6148 3.144 16.8292 l 0.035,0.015 0.015,0.036 V 16.151997 18.931 h 18.654 17.809 l 0.036,0.015 m -18.086,19.084998 -0.034,-0.258999 -0.1,-0.241001 -0.15901,-0.206997 -0.207,-0.159 -0.241,-0.100003 -0.259,-0.034 -0.25899,0.034 -0.24101,0.100003 -0.207,0.159 -0.1,0.130188 -0.059,0.07681 -0.1,0.241001 -0.034,0.258999 0.034,0.259003 0.1,0.240997 0.059,0.07681 0.0555,0.07219 0.0445,0.058 0.207,0.159 0.241,0.1 0.259,0.034 0.259,-0.034 0.241,-0.1 0.207,-0.159 0.0445,-0.058 0.11446,-0.149002 0.1,-0.240997 0.034,-0.259003 m -1.707,56.443002 -0.1,0.130188 -0.059,0.07681 -0.10001,0.241001 -0.034,0.258999 0.034,0.259 0.10001,0.241 0.059,0.07681 0.1,0.130189 0.17705,0.136001 0.0299,0.023 0.24101,0.1 0.25899,0.034 0.25901,-0.034 0.24099,-0.1 0.0299,-0.023 0.17706,-0.136001 0.159,-0.207 0.1,-0.241 0.034,-0.259 -0.034,-0.258999 -0.1,-0.241001 -0.159,-0.206999 -0.207,-0.159001 -0.241,-0.1 -0.259,-0.034 -0.259,0.034 -0.241,0.1 -0.207,0.159001 m -94.545003,-59.823999 -0.258,0.034 -0.242,0.100002 -0.207,0.159 -0.159,0.207001 -0.1,0.240998 -0.034,0.259002 0.034,0.258999 0.1,0.241001 0.159,0.206997 0.207,0.159001 0.242,0.100002 0.12141,0.016 0.13659,0.018 0.13712,-0.018 0.0999,-0.01311 0.022,-0.0029 0.241,-0.100002 0.207,-0.159001 0.159,-0.206997 0.1,-0.241001 0.034,-0.258999 -0.034,-0.259002 -0.1,-0.240998 -0.159,-0.207001 -0.207,-0.159 -0.241,-0.100002 -0.022,-0.0029 -0.237,-0.03111 m 0.707,58.856999 0.159,-0.207 0.1,-0.241 0.034,-0.259 -0.034,-0.259001 -0.1,-0.240999 -0.159,-0.207001 -0.207,-0.158999 -0.0145,-0.006 -0.22654,-0.094 -0.259,-0.034 -0.258,0.034 -0.22748,0.094 -0.0145,0.006 -0.207,0.158999 -0.159,0.207001 -0.1,0.240999 -0.034,0.259001 0.034,0.259 0.1,0.241 0.159,0.207 0.207,0.158999 0.242,0.1 0.258,0.034 0.237,-0.03111 0.022,-0.0029 0.241,-0.1 0.207,-0.158999 m -26.901,22.900003 -0.193,0.0253 -0.066,0.009 -0.241,0.099 -0.207,0.159 -0.159,0.208 -0.1,0.24 -0.034,0.26 0.034,0.258 0.1,0.242 0.159,0.206 0.207,0.159 0.241,0.1 0.066,0.009 0.193,0.0261 0.259,-0.035 0.241,-0.1 0.207,-0.159 0.159,-0.206 0.1,-0.242 0.034,-0.258 -0.034,-0.26 -0.1,-0.24 -0.159,-0.208 -0.207,-0.159 -0.241,-0.099 z"
       fill="none"
       stroke="#ff0000"
       stroke-width="0.001mm"
       id="path3427"
       style="stroke-width:0.4;stroke-dasharray:none" /><path
       d="m 359.39205,18.946006 0.014,0.035 v 62.706999 32.543005 l -0.003,0.019 -0.011,0.017 -0.009,0.003 -0.007,0.007 -17.82899,7.64087 -21.066,9.02813 -44.47001,0.002 -30.946,0.002 -1.82201,0.82817 -15.62199,7.10083 -8.345,8.345 -5.937,5.93699 -0.035,0.015 -0.036,-0.015 -2.79301,-2.79299 -17.84399,-17.84401 -0.002,-0.004 -0.002,-0.001 -0.011,-0.032 0.001,-0.002 -0.001,-0.002 0.794,-7.14199 V 81.688004 15.013002 l 0.014,-0.03599 0.036,-0.014 h 17.015 53.58 V 13.42501 l 0.014,-0.035 0.035,-0.01501 h 11.907 5.507 V 11.787002 10.25 l 0.015,-0.035 0.035,-0.015 h 20.63701 l 0.036,0.015 0.014,0.035 v 1.537002 h 0.6148 3.144 16.8292 l 0.035,0.015 0.015,0.036 V 16.151997 18.931 h 18.654 17.809 l 0.036,0.015 m -18.086,19.084998 -0.034,-0.258999 -0.1,-0.241001 -0.15901,-0.206997 -0.207,-0.159 -0.241,-0.100003 -0.259,-0.034 -0.25899,0.034 -0.24101,0.100003 -0.207,0.159 -0.1,0.130188 -0.059,0.07681 -0.1,0.241001 -0.034,0.258999 0.034,0.259003 0.1,0.240997 0.059,0.07681 0.0555,0.07219 0.0445,0.058 0.207,0.159 0.241,0.1 0.259,0.034 0.259,-0.034 0.241,-0.1 0.207,-0.159 0.0445,-0.058 0.11446,-0.149002 0.1,-0.240997 0.034,-0.259003 m -1.707,56.443002 -0.1,0.130188 -0.059,0.07681 -0.10001,0.241001 -0.034,0.258999 0.034,0.259 0.10001,0.241 0.059,0.07681 0.1,0.130189 0.17705,0.136001 0.0299,0.023 0.24101,0.1 0.25899,0.034 0.25901,-0.034 0.24099,-0.1 0.0299,-0.023 0.17706,-0.136001 0.159,-0.207 0.1,-0.241 0.034,-0.259 -0.034,-0.258999 -0.1,-0.241001 -0.159,-0.206999 -0.207,-0.159001 -0.241,-0.1 -0.259,-0.034 -0.259,0.034 -0.241,0.1 -0.207,0.159001 m -94.54501,-59.823999 -0.258,0.034 -0.242,0.100002 -0.207,0.159 -0.159,0.207001 -0.1,0.240998 -0.034,0.259002 0.034,0.258999 0.1,0.241001 0.159,0.206997 0.207,0.159001 0.242,0.100002 0.12141,0.016 0.13659,0.018 0.13712,-0.018 0.0999,-0.01311 0.022,-0.0029 0.241,-0.100002 0.207,-0.159001 0.159,-0.206997 0.1,-0.241001 0.034,-0.258999 -0.034,-0.259002 -0.1,-0.240998 -0.159,-0.207001 -0.207,-0.159 -0.241,-0.100002 -0.022,-0.0029 -0.237,-0.03111 m 0.707,58.856999 0.159,-0.207 0.1,-0.241 0.034,-0.259 -0.034,-0.259001 -0.1,-0.240999 -0.159,-0.207001 -0.207,-0.158999 -0.0145,-0.006 -0.22654,-0.094 -0.259,-0.034 -0.258,0.034 -0.22748,0.094 -0.0145,0.006 -0.207,0.158999 -0.159,0.207001 -0.1,0.240999 -0.034,0.259001 0.034,0.259 0.1,0.241 0.159,0.207 0.207,0.158999 0.242,0.1 0.258,0.034 0.237,-0.03111 0.022,-0.0029 0.241,-0.1 0.207,-0.158999 m -26.901,22.900003 -0.193,0.0253 -0.066,0.009 -0.241,0.099 -0.207,0.159 -0.159,0.208 -0.1,0.24 -0.034,0.26 0.034,0.258 0.1,0.242 0.159,0.206 0.207,0.159 0.241,0.1 0.066,0.009 0.193,0.0261 0.259,-0.035 0.241,-0.1 0.207,-0.159 0.159,-0.206 0.1,-0.242 0.034,-0.258 -0.034,-0.26 -0.1,-0.24 -0.159,-0.208 -0.207,-0.159 -0.241,-0.099 z"
       fill="none"
       stroke="#ff0000"
       stroke-width="0.001mm"
       id="path3427-2"
       style="stroke-width:0.4;stroke-dasharray:none" /><path
       d="m 10.23,181.68674 -0.007,0.007 -0.009,0.003 -0.011,0.017 -0.003,0.019 v 16.45 5.2 11.38099 21.519 5.2 13.85 5.2 13.85 2.6 l 0.014,0.035 0.036,0.015 h 15.414 21.049 v 2.90601 0.361 2.28899 1.537 l 0.015,0.036 0.035,0.015 h 20.588 v 1.537 l 0.014,0.035 0.036,0.015 h 2.6 13.850004 4.187 l 0.035,-0.015 0.015,-0.035 v -3.125 h 1.33929 1.77271 14.302006 l 0.035,-0.015 0.014,-0.035 v -1.538 h 0.6152 3.04114 36.05666 v -0.70099 -16.38401 -16.38399 -3.66801 -5.2 -13.85 -10.04999 -4.3 h 11.472 13.41594 2.96806 3.076 v -12.084 -16.38401 -11.37299 l 0.794,-7.14101 -0.001,-0.003 0.001,-0.002 -0.01,-0.0279 -0.001,-0.004 -0.002,-9.9e-4 -0.002,-0.003 -14.213,-14.21301 -6.026,-6.02599 -0.398,-0.398 -0.036,-0.015 -0.035,0.015 -6.42445,6.42399 -7.85755,7.85701 -17.444,7.929 h -0.573 -21.86 H 91.200004 50.951 49.144 l -0.019,0.004 -23.461,10.05454 -15.434,6.61446 m 59.771,41.10197 v -8.025 -2.65 h 13.850004 v 2.65 8.025 3.17499 H 70.001 v -3.17499 M 26.7,198.18281 H 25.664 12.85 v -13.85 H 25.664 26.7 v 13.85 m 2.6,1.6 0.259,0.034 0.201,0.0834 0.04,0.0166 0.207,0.159 0.159,0.207 0.10001,0.241 0.034,0.259 -0.034,0.259 -0.10001,0.241 -0.159,0.207 -0.207,0.159 -0.04,0.0166 -0.201,0.0834 -0.259,0.034 -0.259,-0.034 -0.241,-0.1 -0.207,-0.159 -0.159,-0.207 -0.1,-0.241 -0.034,-0.259 0.034,-0.259 0.1,-0.241 0.159,-0.207 0.207,-0.159 0.241,-0.1 0.259,-0.034 m 40.701,45.23099 v -3.175 -10.675 h 13.850004 v 10.675 3.175 H 70.001 m -40.701,11.919 0.259,0.034 0.201,0.0834 0.04,0.0166 0.207,0.159 0.159,0.207 0.10001,0.241 0.034,0.259 -0.034,0.259 -0.10001,0.241 -0.159,0.207 -0.207,0.159 -0.04,0.0166 -0.201,0.0834 -0.259,0.034 -0.259,-0.034 -0.241,-0.1 -0.207,-0.159 -0.159,-0.207 -0.1,-0.241 -0.034,-0.259 0.034,-0.259 0.1,-0.241 0.159,-0.207 0.207,-0.159 0.241,-0.1 0.259,-0.034 m 2.6,9.156 v -2.173 -3.383 h 1.956 8.192 3.703 v 0.356 3.027 2.173 8.294 H 31.9 v -8.294 m 117.78401,-105.787 7.052,-7.05272 2.741,-2.74127 9.794,9.79399 -9.794,9.793 -2.741,-2.741 -1.742,-1.742 -5.31,-5.31 m 0.355,17.549 0.207,-0.159 0.241,-0.1 0.259,-0.034 0.259,0.034 0.241,0.1 0.207,0.159 0.0376,0.049 0.12136,0.158 0.1,0.241 0.034,0.259 -0.034,0.259 -0.1,0.241 -0.159,0.207 -0.207,0.159 -0.241,0.1 -0.259,0.034 -0.154,-0.0202 -0.105,-0.0138 -0.241,-0.1 -0.207,-0.159 -0.159,-0.207 -0.1,-0.241 -0.034,-0.259 0.034,-0.259 0.1,-0.241 0.12136,-0.158 0.0376,-0.049 m -28.087,8.863 v 11.66601 2.184 h -13.85 v -2.184 -11.666 h 13.85 m 0,20.12894 v 7.92106 4.85 h -13.85 v -4.85 -0.21455 -8.78545 h 11.43766 1.76518 0.64716 v 1.07894 m 2.6,-4.67894 0.258,0.034 0.242,0.1 0.207,0.159 0.0146,0.019 0.14441,0.188 0.1,0.241 0.034,0.259 -0.034,0.259 -0.1,0.241 -0.15901,0.207 -0.20699,0.159 -0.242,0.1 -0.258,0.034 -0.259,-0.034 -0.241,-0.1 -0.084,-0.0645 -0.123,-0.0945 -0.159,-0.20701 -0.1,-0.24099 -0.034,-0.25901 0.034,-0.25899 0.1,-0.24101 0.159,-0.20699 0.123,-0.0945 0.084,-0.0645 0.241,-0.10001 0.259,-0.034 m 2.6,-1.59999 v -2.184 -11.275 -0.391 h 13.85 v 0.391 11.275 2.184 h -0.65 -8.192 -3.92906 -1.07894 m 25.891,5.123 0.159,0.207 0.099,0.241 0.035,0.259 -0.0241,0.178 -0.0109,0.081 -0.099,0.241 -0.159,0.207 -0.207,0.159 -0.242,0.1 -0.258,0.034 -0.259,-0.034 -0.242,-0.1 -0.207,-0.159 -0.159,-0.207 -0.099,-0.241 -0.0109,-0.081 -0.0241,-0.178 0.035,-0.259 0.099,-0.241 0.159,-0.207 0.207,-0.159 0.242,-0.1 0.259,-0.034 0.258,0.034 0.242,0.1 0.207,0.159 m -1.093,-7.102 v -0.205 -11.275 h 4.786 7.094 v 10.417 l -0.78051,0.858 -0.18649,0.205 h -6.127 -2.26454 -2.08119 -0.44027 m 11.633,7.938 -0.0203,0.049 -0.0797,0.192 -0.15899,0.207 -0.207,0.159 -0.241,0.1 -0.259,0.034 -0.25901,-0.034 -0.24099,-0.1 -0.207,-0.159 -0.159,-0.207 -0.0797,-0.192 -0.0203,-0.049 -0.034,-0.259 0.034,-0.259 0.10001,-0.241 0.15899,-0.207 0.207,-0.159 0.241,-0.1 0.259,-0.034 0.25901,0.034 0.24099,0.1 0.207,0.159 0.159,0.207 0.10001,0.241 0.034,0.259 -0.034,0.259 m -60.68101,35.31599 h -11.702006 -2.15 v -10.675 -0.016 -3.159 h 2.15 11.702006 v 3.159 7.516 3.175 m 0,38.10001 h -11.702006 -2.15 v -10.67501 -3.175 h 2.15 11.702006 v 10.675 3.17501 m 24.25,-24.21508 v -8.19199 -3.66801 h 13.84999 v 3.66801 10.18199 h -0.65 -8.192 -3.92906 -1.07894 v -1.99 m -2.6,3.59 0.258,0.034 0.242,0.1 0.207,0.159 0.159,0.20701 0.002,0.006 0.0975,0.235 0.034,0.259 -0.034,0.25899 -0.1,0.24101 -0.159,0.207 -0.207,0.159 -0.242,0.1 -0.258,0.034 -0.259,-0.034 -0.241,-0.1 -0.084,-0.0645 -0.123,-0.0945 -0.159,-0.207 -0.1,-0.24101 -0.034,-0.25899 0.034,-0.259 0.1,-0.241 0.159,-0.207 0.123,-0.0945 0.084,-0.0645 0.241,-0.1 0.259,-0.034 m 2.6,17.45 v -12.84801 -0.35484 -0.64715 h 5.008 8.192 0.65 v 1.00199 12.848 h -13.85 M 12.85,203.38274 H 25.664 26.7 v 3.189 8.192 2.469 H 25.664 12.85 v -2.469 -11.381 m 75.407004,-29.369 v -3.175 h 2.943 10.908006 v 11.15699 2.69301 h -10.908006 -2.943 v -2.69301 -7.98199 m -5.2,7.98199 v 2.69301 3.175 H 69.207 v -3.175 -2.69301 -7.98199 h 13.850004 v 7.98199 m -18.257004,0 v 2.69301 h -6.368 -7.481 v -2.69301 -11.15699 H 64.8 v 11.15699 m -13.849,7.89301 h 7.481 6.368 v 8.491 5.359 h -6.368 -7.481 v -0.356 -5.003 -0.197 -8.294 m -19.051,-5.556 h 13.851 v 13.85 H 31.9 v -13.85 m 0,22.239 v -3.189 h 1.956 8.192 3.703 v 11.381 2.469 H 31.9 v -2.469 -8.192 m 19.051,2.367 h 7.481 6.368 v 5.825 8.025 h -6.368 -7.481 v -8.025 -5.825 m 32.900004,-10.559 v 5.359 3.175 H 70.001 v -3.175 -5.359 -5.316 h 13.850004 v 5.316 m 5.199,-5.316 v -3.175 h 2.15 10.908006 0.794 v 8.491 5.359 h -11.702006 -2.15 v -5.359 -5.316 m 0,19.05 v -3.175 h 2.15 11.702006 v 5.825 8.025 h -11.702006 -2.15 v -8.025 -2.65 M 25.664,222.43274 H 26.7 v 8.71499 5.135 H 25.664 12.85 V 222.43274 H 25.664 M 12.85,260.53273 H 25.664 26.7 v 3.383 10.467 H 25.664 12.85 v -13.85 m 0,-19.05 H 25.664 26.7 v 0.356 5.20001 0.493 7.80099 H 25.664 12.85 v -13.85 m 19.05,-10.335 v -8.71499 h 13.851 v 8.71499 5.135 H 31.9 v -5.135 m 26.532,-3.159 H 64.8 v 3.159 0.016 10.67501 h -6.368 -7.481 v -0.35601 -5.2 -5.13499 -3.159 h 7.481 m -12.681,19.543 v 7.801 H 42.048 31.9 v -7.801 -0.493 -5.2 -0.35601 h 13.851 v 0.35601 5.2 0.493 m 5.2,-0.493 h 7.481 6.368 v 0.493 13.35699 h -6.368 -7.481 v -0.35599 -5.2 -7.801 -0.493 m 0,19.05 h 7.481 6.368 v 3.17499 10.67501 h -6.368 -7.481 v -5.55601 -8.29399 m 32.900004,-15.875 v 10.67499 3.02701 0.14799 H 70.001 v -0.148 -3.027 -10.675 h 13.850004 m 5.199,0 v -2.68199 -0.493 h 2.15 11.702006 v 0.493 13.35699 h -11.702006 -2.15 v -10.675 m -5.199,19.05 v 10.67501 0.361 2.28899 0.525 H 70.001 v -0.525 -2.28899 -0.361 -10.67501 h 13.850004 m 23.457006,-87.74999 v -13.85 h 13.85 v 13.85 h -13.85 m 23.87847,-16.5 5.37597,-2.50682 4.03856,-1.88318 2.3263,4.988 3.5277,7.56399 -1.34688,0.62801 -4.75612,2.2176 -6.45,3.0074 -5.853,-12.552 1.85503,-0.865 1.28244,-0.598 m 0.97353,40.75 h 8.192 0.65 v 0.808 3.892 4.3 4.85 h -13.85 v -4.85 -8.192 -0.808 h 5.008 m -10.208,25.38399 v 7.516 h -13.85 v -7.516 -6.334 h 13.85 v 6.334 m 0,16.38401 v 10.18199 h -13.85 v -10.18199 -0.493 -3.17501 h 13.85 v 3.17501 0.493 m 19.05,-8.86801 h -13.85 v -13.85 h 13.85 v 13.85 m -32.9,24.25001 h 13.85 v 1.00199 12.848 h -13.85 v -12.848 z"
       fill="none"
       stroke="#ff0000"
       stroke-width="0.001mm"
       id="path5677"
       style="stroke-width:0.4;stroke-dasharray:none" /><path
       d="m 193.62982,182.197 -0.007,0.007 -0.009,0.003 -0.011,0.017 -0.003,0.019 v 16.45 5.2 11.38099 21.519 5.2 13.85 5.2 13.85 2.6 l 0.014,0.035 0.036,0.015 h 15.414 21.049 v 2.90601 0.361 2.28899 1.537 l 0.015,0.036 0.035,0.015 h 20.588 v 1.537 l 0.014,0.035 0.036,0.015 h 2.6 13.85 4.187 l 0.035,-0.015 0.015,-0.035 v -3.125 h 1.33929 1.77271 14.30201 l 0.035,-0.015 0.014,-0.035 v -1.538 h 0.6152 3.04114 36.05666 V 280.81 264.42599 248.042 v -3.66801 -5.2 -13.85 -10.04999 -4.3 h 11.472 13.41594 2.96806 3.076 V 198.89 182.50599 171.133 l 0.794,-7.14101 -0.001,-0.003 0.001,-0.002 -0.01,-0.0279 -0.001,-0.004 -0.002,-9.9e-4 -0.002,-0.003 -14.213,-14.21301 -6.026,-6.02599 -0.398,-0.398 -0.036,-0.015 -0.035,0.015 -6.42445,6.42399 -7.85755,7.85701 -17.444,7.929 h -0.573 -21.86 -10.90801 -40.249 -1.807 l -0.019,0.004 -23.461,10.05454 -15.434,6.61446 m 59.771,41.10197 v -8.025 -2.65 h 13.85 v 2.65 8.025 3.17499 h -13.85 v -3.17499 m -43.301,-24.606 h -1.036 -12.814 v -13.85 h 12.814 1.036 v 13.85 m 2.6,1.6 0.259,0.034 0.201,0.0834 0.04,0.0166 0.207,0.159 0.159,0.207 0.10001,0.241 0.034,0.259 -0.034,0.259 -0.10001,0.241 -0.159,0.207 -0.207,0.159 -0.04,0.0166 -0.201,0.0834 -0.259,0.034 -0.259,-0.034 -0.241,-0.1 -0.207,-0.159 -0.159,-0.207 -0.1,-0.241 -0.034,-0.259 0.034,-0.259 0.1,-0.241 0.159,-0.207 0.207,-0.159 0.241,-0.1 0.259,-0.034 m 40.701,45.23099 v -3.175 -10.675 h 13.85 v 10.675 3.175 h -13.85 m -40.701,11.919 0.259,0.034 0.201,0.0834 0.04,0.0166 0.207,0.159 0.159,0.207 0.10001,0.241 0.034,0.259 -0.034,0.259 -0.10001,0.241 -0.159,0.207 -0.207,0.159 -0.04,0.0166 -0.201,0.0834 -0.259,0.034 -0.259,-0.034 -0.241,-0.1 -0.207,-0.159 -0.159,-0.207 -0.1,-0.241 -0.034,-0.259 0.034,-0.259 0.1,-0.241 0.159,-0.207 0.207,-0.159 0.241,-0.1 0.259,-0.034 m 2.6,9.156 v -2.173 -3.383 h 1.956 8.192 3.703 v 0.356 3.027 2.173 8.294 h -13.851 v -8.294 m 117.78401,-105.787 7.052,-7.05272 2.741,-2.74127 9.794,9.79399 -9.794,9.793 -2.741,-2.741 -1.742,-1.742 -5.31,-5.31 m 0.355,17.549 0.207,-0.159 0.241,-0.1 0.259,-0.034 0.259,0.034 0.241,0.1 0.207,0.159 0.0376,0.049 0.12136,0.158 0.1,0.241 0.034,0.259 -0.034,0.259 -0.1,0.241 -0.159,0.207 -0.207,0.159 -0.241,0.1 -0.259,0.034 -0.154,-0.0202 -0.105,-0.0138 -0.241,-0.1 -0.207,-0.159 -0.159,-0.207 -0.1,-0.241 -0.034,-0.259 0.034,-0.259 0.1,-0.241 0.12136,-0.158 0.0376,-0.049 m -28.087,8.863 v 11.66601 2.184 h -13.85 v -2.184 -11.666 h 13.85 m 0,20.12894 v 7.92106 4.85 h -13.85 v -4.85 -0.21455 -8.78545 h 11.43766 1.76518 0.64716 v 1.07894 m 2.6,-4.67894 0.258,0.034 0.242,0.1 0.207,0.159 0.0146,0.019 0.14441,0.188 0.1,0.241 0.034,0.259 -0.034,0.259 -0.1,0.241 -0.15901,0.207 -0.20699,0.159 -0.242,0.1 -0.258,0.034 -0.259,-0.034 -0.241,-0.1 -0.084,-0.0645 -0.123,-0.0945 -0.159,-0.20701 -0.1,-0.24099 -0.034,-0.25901 0.034,-0.25899 0.1,-0.24101 0.159,-0.20699 0.123,-0.0945 0.084,-0.0645 0.241,-0.10001 0.259,-0.034 m 2.6,-1.59999 v -2.184 -11.275 -0.391 h 13.85 v 0.391 11.275 2.184 h -0.65 -8.192 -3.92906 -1.07894 m 25.891,5.123 0.159,0.207 0.099,0.241 0.035,0.259 -0.0241,0.178 -0.0109,0.081 -0.099,0.241 -0.159,0.207 -0.207,0.159 -0.242,0.1 -0.258,0.034 -0.259,-0.034 -0.242,-0.1 -0.207,-0.159 -0.159,-0.207 -0.099,-0.241 -0.0109,-0.081 -0.0241,-0.178 0.035,-0.259 0.099,-0.241 0.159,-0.207 0.207,-0.159 0.242,-0.1 0.259,-0.034 0.258,0.034 0.242,0.1 0.207,0.159 m -1.093,-7.102 v -0.205 -11.275 h 4.786 7.094 v 10.417 l -0.78051,0.858 -0.18649,0.205 h -6.127 -2.26454 -2.08119 -0.44027 m 11.633,7.938 -0.0203,0.049 -0.0797,0.192 -0.15899,0.207 -0.207,0.159 -0.241,0.1 -0.259,0.034 -0.25901,-0.034 -0.24099,-0.1 -0.207,-0.159 -0.159,-0.207 -0.0797,-0.192 -0.0203,-0.049 -0.034,-0.259 0.034,-0.259 0.10001,-0.241 0.15899,-0.207 0.207,-0.159 0.241,-0.1 0.259,-0.034 0.25901,0.034 0.24099,0.1 0.207,0.159 0.159,0.207 0.10001,0.241 0.034,0.259 -0.034,0.259 m -60.68101,35.31599 h -11.70201 -2.15 v -10.675 -0.016 -3.159 h 2.15 11.70201 v 3.159 7.516 3.175 m 0,38.10001 h -11.70201 -2.15 v -10.67501 -3.175 h 2.15 11.70201 v 10.675 3.17501 m 24.25,-24.21508 v -8.19199 -3.66801 h 13.84999 v 3.66801 10.18199 h -0.65 -8.192 -3.92906 -1.07894 v -1.99 m -2.6,3.59 0.258,0.034 0.242,0.1 0.207,0.159 0.159,0.20701 0.002,0.006 0.0975,0.235 0.034,0.259 -0.034,0.25899 -0.1,0.24101 -0.159,0.207 -0.207,0.159 -0.242,0.1 -0.258,0.034 -0.259,-0.034 -0.241,-0.1 -0.084,-0.0645 -0.123,-0.0945 -0.159,-0.207 -0.1,-0.24101 -0.034,-0.25899 0.034,-0.259 0.1,-0.241 0.159,-0.207 0.123,-0.0945 0.084,-0.0645 0.241,-0.1 0.259,-0.034 m 2.6,17.45 v -12.84801 -0.35484 -0.64715 h 5.008 8.192 0.65 v 1.00199 12.848 h -13.85 M 196.24982,203.893 h 12.814 1.036 v 3.189 8.192 2.469 h -1.036 -12.814 v -2.469 -11.381 m 75.407,-29.369 v -3.175 h 2.943 10.90801 v 11.15699 2.69301 h -10.90801 -2.943 v -2.69301 -7.98199 m -5.2,7.98199 v 2.69301 3.175 h -13.85 v -3.175 -2.69301 -7.98199 h 13.85 v 7.98199 m -18.257,0 v 2.69301 h -6.368 -7.481 V 182.50599 171.349 h 13.849 v 11.15699 m -13.849,7.89301 h 7.481 6.368 v 8.491 5.359 h -6.368 -7.481 v -0.356 -5.003 -0.197 -8.294 m -19.051,-5.556 h 13.851 v 13.85 h -13.851 v -13.85 m 0,22.239 v -3.189 h 1.956 8.192 3.703 v 11.381 2.469 h -13.851 v -2.469 -8.192 m 19.051,2.367 h 7.481 6.368 v 5.825 8.025 h -6.368 -7.481 v -8.025 -5.825 m 32.9,-10.559 v 5.359 3.175 h -13.85 v -3.175 -5.359 -5.316 h 13.85 v 5.316 m 5.199,-5.316 v -3.175 h 2.15 10.90801 0.794 v 8.491 5.359 h -11.70201 -2.15 v -5.359 -5.316 m 0,19.05 v -3.175 h 2.15 11.70201 v 5.825 8.025 h -11.70201 -2.15 v -8.025 -2.65 m -63.386,10.319 h 1.036 v 8.71499 5.135 h -1.036 -12.814 V 222.943 h 12.814 m -12.814,38.09999 h 12.814 1.036 v 3.383 10.467 h -1.036 -12.814 v -13.85 m 0,-19.05 h 12.814 1.036 v 0.356 5.20001 0.493 7.80099 h -1.036 -12.814 v -13.85 m 19.05,-10.335 V 222.943 h 13.851 v 8.71499 5.135 h -13.851 v -5.135 m 26.532,-3.159 h 6.368 v 3.159 0.016 10.67501 h -6.368 -7.481 v -0.35601 -5.2 -5.13499 -3.159 h 7.481 m -12.681,19.543 v 7.801 h -3.703 -10.148 v -7.801 -0.493 -5.2 -0.35601 h 13.851 v 0.35601 5.2 0.493 m 5.2,-0.493 h 7.481 6.368 v 0.493 13.35699 h -6.368 -7.481 v -0.35599 -5.2 -7.801 -0.493 m 0,19.05 h 7.481 6.368 v 3.17499 10.67501 h -6.368 -7.481 v -5.55601 -8.29399 m 32.9,-15.875 v 10.67499 3.02701 0.14799 h -13.85 v -0.148 -3.027 -10.675 h 13.85 m 5.199,0 v -2.68199 -0.493 h 2.15 11.70201 v 0.493 13.35699 h -11.70201 -2.15 v -10.675 m -5.199,19.05 v 10.67501 0.361 2.28899 0.525 h -13.85 v -0.525 -2.28899 -0.361 -10.67501 h 13.85 M 290.70783,182.024 v -13.85 h 13.85 v 13.85 h -13.85 m 23.87847,-16.5 5.37597,-2.50682 4.03856,-1.88318 2.3263,4.988 3.5277,7.56399 -1.34688,0.62801 -4.75612,2.2176 -6.45,3.0074 -5.853,-12.552 1.85503,-0.865 1.28244,-0.598 m 0.97353,40.75 h 8.192 0.65 v 0.808 3.892 4.3 4.85 h -13.85 v -4.85 -8.192 -0.808 h 5.008 m -10.208,25.38399 v 7.516 h -13.85 v -7.516 -6.334 h 13.85 v 6.334 m 0,16.38401 v 10.18199 h -13.85 v -10.18199 -0.493 -3.17501 h 13.85 v 3.17501 0.493 m 19.05,-8.86801 h -13.85 v -13.85 h 13.85 v 13.85 m -32.9,24.25001 h 13.85 v 1.00199 12.848 h -13.85 v -12.848 z"
       fill="none"
       stroke="#ff0000"
       stroke-width="0.001mm"
       id="path5677-3"
       style="stroke-width:0.4;stroke-dasharray:none" /></g></svg>
